<svg version="1.0" xmlns="http://www.w3.org/2000/svg"
 width="32.000000pt" height="32.000000pt" viewBox="0 0 32.000000 32.000000"
 preserveAspectRatio="xMidYMid meet">

<g transform="translate(0.000000,32.000000) scale(0.100000,-0.100000)"
fill="#000000" stroke="none">
<path d="M215 250 c3 -5 8 -10 11 -10 2 0 4 5 4 10 0 6 -5 10 -11 10 -5 0 -7
-4 -4 -10z"/>
<path d="M180 240 c0 -5 5 -10 11 -10 5 0 7 5 4 10 -3 6 -8 10 -11 10 -2 0 -4
-4 -4 -10z"/>
<path d="M145 220 c3 -5 8 -10 11 -10 2 0 4 5 4 10 0 6 -5 10 -11 10 -5 0 -7
-4 -4 -10z"/>
<path d="M105 210 c3 -5 11 -10 16 -10 6 0 7 5 4 10 -3 6 -11 10 -16 10 -6 0
-7 -4 -4 -10z"/>
<path d="M70 151 c0 -80 1 -81 91 -81 l79 0 0 63 c0 44 -3 58 -10 47 -9 -13
-11 -13 -21 0 -8 11 -12 12 -16 3 -2 -7 -11 -13 -19 -13 -9 0 -12 5 -9 10 3 6
2 10 -4 10 -5 0 -13 -4 -16 -10 -3 -5 -11 -10 -16 -10 -6 0 -8 4 -5 9 5 8 -24
20 -46 21 -5 0 -8 -22 -8 -49z m120 -31 c0 -5 -13 -16 -30 -25 l-30 -16 0 41
0 41 30 -16 c17 -9 30 -20 30 -25z"/>
</g>
</svg>
